<svg
  width="64"
  height="64"
  viewBox="0 0 64 64"
  fill="none"
  xmlns="http://www.w3.org/2000/svg"
>
  <defs>
    <linearGradient id="grad5-bg" x1="0%" y1="0%" x2="100%" y2="100%">
      <stop offset="0%" stop-color="#6366f1" />
      <stop offset="100%" stop-color="#a855f7" />
    </linearGradient>
    <linearGradient id="grad5-glass" x1="0%" y1="0%" x2="0%" y2="100%">
      <stop offset="0%" stop-color="white" stop-opacity="0.25" />
      <stop offset="100%" stop-color="white" stop-opacity="0.05" />
    </linearGradient>
    <filter id="blur">
      <feGaussianBlur in="SourceGraphic" stdDeviation="0.5" />
    </filter>
  </defs>

  <rect width="64" height="64" rx="16" fill="url(#grad5-bg)" />

  <rect
    x="14"
    y="12"
    width="28"
    height="38"
    rx="4"
    fill="url(#grad5-glass)"
    stroke="white"
    stroke-width="1.5"
    stroke-opacity="0.3"
  />

  <rect
    x="16"
    y="14"
    width="10"
    height="20"
    rx="2"
    fill="white"
    opacity="0.15"
  />

  <line x1="20" y1="22" x2="36" y2="22" stroke="white" stroke-width="2" stroke-linecap="round" opacity="0.5" />
  <line x1="20" y1="27" x2="34" y2="27" stroke="white" stroke-width="2" stroke-linecap="round" opacity="0.5" />
  <line x1="20" y1="32" x2="32" y2="32" stroke="white" stroke-width="2" stroke-linecap="round" opacity="0.5" />
  <line x1="20" y1="37" x2="30" y2="37" stroke="white" stroke-width="2" stroke-linecap="round" opacity="0.3" />

  <circle
    cx="46"
    cy="44"
    r="13"
    fill="url(#grad5-glass)"
    stroke="white"
    stroke-width="1.5"
    stroke-opacity="0.4"
  />

  <path
    d="M40 52L42 56L44 52"
    stroke="white"
    stroke-width="1.5"
    stroke-linecap="round"
    stroke-linejoin="round"
    stroke-opacity="0.4"
    fill="none"
  />

  <circle cx="41" cy="44" r="2" fill="white" opacity="0.8" />
  <circle cx="46" cy="44" r="2" fill="white" opacity="0.8" />
  <circle cx="51" cy="44" r="2" fill="white" opacity="0.8" />

  <circle cx="20" cy="16" r="2" fill="white" opacity="0.3" />
  <circle cx="50" cy="38" r="1.5" fill="white" opacity="0.4" />
</svg>
